/* XPM */
static char * frames9_xpm[] = {
"64 64 640 2",
"  	c #0F0F0F",
". 	c #1A1C1B",
"+ 	c #202020",
"@ 	c #242424",
"# 	c #21211F",
"$ 	c #20221F",
"% 	c #1B1B19",
"& 	c #1B1B1B",
"* 	c #1A1A1A",
"= 	c #1C1E1D",
"- 	c #222222",
"; 	c #212121",
"> 	c #0D0D0D",
", 	c #0E0E0E",
"' 	c #0F0F0D",
") 	c #0D0F0E",
"! 	c #0F0D0E",
"~ 	c #0E0E0C",
"{ 	c #1B1B1D",
"] 	c #252525",
"^ 	c #323232",
"/ 	c #303231",
"( 	c #2A2A2A",
"_ 	c #202221",
": 	c #1C1C1C",
"< 	c #212123",
"[ 	c #20201E",
"} 	c #262626",
"| 	c #2B2B2B",
"1 	c #313131",
"2 	c #1C1A1B",
"3 	c #222021",
"4 	c #262425",
"5 	c #303030",
"6 	c #2A2C2B",
"7 	c #323031",
"8 	c #252523",
"9 	c #292929",
"0 	c #2B292A",
"a 	c #242625",
"b 	c #22211F",
"c 	c #25211E",
"d 	c #291B12",
"e 	c #261B15",
"f 	c #292522",
"g 	c #32241B",
"h 	c #312823",
"i 	c #292927",
"j 	c #32312F",
"k 	c #3F2F16",
"l 	c #765F13",
"m 	c #624C12",
"n 	c #2D241D",
"o 	c #372113",
"p 	c #41210A",
"q 	c #332117",
"r 	c #262523",
"s 	c #2E2015",
"t 	c #2C2219",
"u 	c #25201C",
"v 	c #523B12",
"w 	c #AC8E14",
"x 	c #AD780E",
"y 	c #5D2608",
"z 	c #4F3210",
"A 	c #7B6011",
"B 	c #6C4D0D",
"C 	c #2E1D15",
"D 	c #252527",
"E 	c #232524",
"F 	c #3A1F0C",
"G 	c #411E08",
"H 	c #2E1D13",
"I 	c #4F380E",
"J 	c #B18F14",
"K 	c #CF7F10",
"L 	c #AA3900",
"M 	c #B16408",
"N 	c #C9A415",
"O 	c #876D10",
"P 	c #452109",
"Q 	c #3B1F0A",
"R 	c #3F200C",
"S 	c #3A2313",
"T 	c #2A211C",
"U 	c #21221D",
"V 	c #282421",
"W 	c #482D0F",
"X 	c #82620D",
"Y 	c #7C630F",
"Z 	c #8C7211",
"` 	c #D9A211",
" .	c #DA6E09",
"..	c #D86806",
"+.	c #F0A913",
"@.	c #EAAD14",
"#.	c #BC710B",
"$.	c #AC720E",
"%.	c #9F6D0C",
"&.	c #552E03",
"*.	c #2F2116",
"=.	c #2E2925",
"-.	c #1C1C1E",
";.	c #4B2910",
">.	c #9C5709",
",.	c #CB800D",
"'.	c #DBAE15",
").	c #E4A115",
"!.	c #DB850E",
"~.	c #DF850D",
"{.	c #E68908",
"].	c #E3870C",
"^.	c #E29312",
"/.	c #DAA114",
"(.	c #855C0C",
"_.	c #2E2311",
":.	c #1D1B1C",
"<.	c #381E0D",
"[.	c #7B3408",
"}.	c #C3760E",
"|.	c #DE850D",
"1.	c #E3830B",
"2.	c #DD7F0D",
"3.	c #E0A817",
"4.	c #E8C11C",
"5.	c #DB8410",
"6.	c #EDA713",
"7.	c #C76E08",
"8.	c #6C2D02",
"9.	c #341A09",
"0.	c #271C16",
"a.	c #1D1C1A",
"b.	c #2F1D11",
"c.	c #3E2008",
"d.	c #512002",
"e.	c #974104",
"f.	c #DFA516",
"g.	c #EAC51C",
"h.	c #DC7E0C",
"i.	c #E2760A",
"j.	c #F1BD19",
"k.	c #F4C418",
"l.	c #DB8810",
"m.	c #916618",
"n.	c #74551E",
"o.	c #B16A10",
"p.	c #CB9914",
"q.	c #A19318",
"r.	c #484212",
"s.	c #141414",
"t.	c #1F1B1A",
"u.	c #41230B",
"v.	c #904C03",
"w.	c #B66305",
"x.	c #864704",
"y.	c #AB6C0B",
"z.	c #E28F0B",
"A.	c #E2780A",
"B.	c #F08908",
"C.	c #F8A910",
"D.	c #E2B418",
"E.	c #8D731F",
"F.	c #39342E",
"G.	c #2E2F33",
"H.	c #624A24",
"I.	c #A97D14",
"J.	c #826A12",
"K.	c #29290F",
"L.	c #1D1D1D",
"M.	c #1C1B19",
"N.	c #23170B",
"O.	c #5D330B",
"P.	c #6E4205",
"Q.	c #8C7410",
"R.	c #D4910F",
"S.	c #D95D03",
"T.	c #CF5003",
"U.	c #E98209",
"V.	c #F8BF18",
"W.	c #DACE24",
"X.	c #656A28",
"Y.	c #171F2C",
"Z.	c #272F3A",
"`.	c #56524F",
" +	c #604B36",
".+	c #40240F",
"++	c #231812",
"@+	c #232122",
"#+	c #1B191A",
"$+	c #2A2310",
"%+	c #786B0F",
"&+	c #CCA617",
"*+	c #B07B1F",
"=+	c #B36115",
"-+	c #D65A04",
";+	c #E37C06",
">+	c #F7C818",
",+	c #DAB71D",
"'+	c #6C5625",
")+	c #434750",
"!+	c #8B8C8E",
"~+	c #979692",
"{+	c #4C4C4C",
"]+	c #221E1D",
"^+	c #1F1B18",
"/+	c #0D0D0B",
"(+	c #1E1E1E",
"_+	c #13140E",
":+	c #2E2B08",
"<+	c #584D20",
"[+	c #4E4438",
"}+	c #504333",
"|+	c #694221",
"1+	c #B47212",
"2+	c #E6BC1C",
"3+	c #9A8D2F",
"4+	c #5E584A",
"5+	c #888783",
"6+	c #CBC8C1",
"7+	c #B0ADA8",
"8+	c #494A4E",
"9+	c #1B1E23",
"0+	c #15181D",
"a+	c #0D0B10",
"b+	c #1F0E04",
"c+	c #281E1D",
"d+	c #273039",
"e+	c #2C353E",
"f+	c #232730",
"g+	c #4D4425",
"h+	c #A19A28",
"i+	c #898B40",
"j+	c #767570",
"k+	c #989489",
"l+	c #707173",
"m+	c #3E424B",
"n+	c #25282D",
"o+	c #1F1F21",
"p+	c #202022",
"q+	c #222224",
"r+	c #0F1012",
"s+	c #151110",
"t+	c #44260E",
"u+	c #80480D",
"v+	c #584122",
"w+	c #18202D",
"x+	c #131A2A",
"y+	c #2B2A26",
"z+	c #8B6620",
"A+	c #7D6330",
"B+	c #363D45",
"C+	c #494041",
"D+	c #693E2D",
"E+	c #592C19",
"F+	c #2D2018",
"G+	c #232323",
"H+	c #181B22",
"I+	c #0C0D12",
"J+	c #191512",
"K+	c #3F230D",
"L+	c #6C2F02",
"M+	c #7C3109",
"N+	c #4C1F0C",
"O+	c #4E281D",
"P+	c #5B3327",
"Q+	c #854625",
"R+	c #B76639",
"S+	c #997E75",
"T+	c #6D6769",
"U+	c #87633F",
"V+	c #7C4F28",
"W+	c #322117",
"X+	c #232426",
"Y+	c #191D26",
"Z+	c #0A0D14",
"`+	c #10100E",
" @	c #44210B",
".@	c #552000",
"+@	c #411806",
"@@	c #763519",
"#@	c #B25029",
"$@	c #B75228",
"%@	c #CF6938",
"&@	c #DE9F69",
"*@	c #D5AB71",
"=@	c #B87540",
"-@	c #753D1A",
";@	c #322215",
">@	c #1F1F1D",
",@	c #121413",
"'@	c #0E0E10",
")@	c #191718",
"!@	c #29211E",
"~@	c #1B100A",
"{@	c #0E0603",
"]@	c #241818",
"^@	c #4C2D2A",
"/@	c #934628",
"(@	c #D06632",
"_@	c #E79E5A",
":@	c #E4B269",
"<@	c #956233",
"[@	c #422716",
"}@	c #191919",
"|@	c #101010",
"1@	c #0E100F",
"2@	c #080C15",
"3@	c #0E1525",
"4@	c #141A28",
"5@	c #3B2728",
"6@	c #944729",
"7@	c #C1612E",
"8@	c #8D4F26",
"9@	c #462F1D",
"0@	c #24201D",
"a@	c #191917",
"b@	c #131313",
"c@	c #202123",
"d@	c #191C25",
"e@	c #101624",
"f@	c #111926",
"g@	c #1D2530",
"h@	c #1A2430",
"i@	c #131723",
"j@	c #201513",
"k@	c #2A1409",
"l@	c #311F1B",
"m@	c #111111",
"n@	c #171B26",
"o@	c #212733",
"p@	c #2D3540",
"q@	c #29323B",
"r@	c #19212E",
"s@	c #20242F",
"t@	c #4E4E4E",
"u@	c #434446",
"v@	c #212224",
"w@	c #242527",
"x@	c #1F1F1F",
"y@	c #1F2022",
"z@	c #232B36",
"A@	c #2F383F",
"B@	c #2F363C",
"C@	c #262C38",
"D@	c #3F4249",
"E@	c #383840",
"F@	c #222328",
"G@	c #191D28",
"H@	c #2A333A",
"I@	c #1C2125",
"J@	c #1E222B",
"K@	c #282C38",
"L@	c #353C44",
"M@	c #2F333C",
"N@	c #1E1D23",
"O@	c #1F2120",
"P@	c #101115",
"Q@	c #0D141E",
"R@	c #283138",
"S@	c #181C1F",
"T@	c #1D2228",
"U@	c #2A343D",
"V@	c #343841",
"W@	c #58595B",
"X@	c #424347",
"Y@	c #1D1E23",
"Z@	c #0F0F11",
"`@	c #0C131B",
" #	c #202A34",
".#	c #1D242E",
"+#	c #0E1118",
"@#	c #1E2327",
"##	c #303741",
"$#	c #5F5F5F",
"%#	c #4B4C4E",
"&#	c #1F2025",
"*#	c #0F131C",
"=#	c #212934",
"-#	c #1A222D",
";#	c #0C1117",
">#	c #282F39",
",#	c #3D4248",
"'#	c #343740",
")#	c #232429",
"!#	c #2C2A2B",
"~#	c #2E2C2D",
"{#	c #151316",
"]#	c #0E111A",
"^#	c #202835",
"/#	c #1B212F",
"(#	c #211811",
"_#	c #8C5209",
":#	c #C97A13",
"<#	c #745630",
"[#	c #42454E",
"}#	c #30343D",
"|#	c #212429",
"1#	c #282828",
"2#	c #2C2C2C",
"3#	c #131315",
"4#	c #0E121B",
"5#	c #222A35",
"6#	c #293038",
"7#	c #2D2518",
"8#	c #9B5A06",
"9#	c #DF840F",
"0#	c #7F5D30",
"a#	c #43464D",
"b#	c #101012",
"c#	c #293239",
"d#	c #30261A",
"e#	c #955003",
"f#	c #C45E0C",
"g#	c #633A28",
"h#	c #1F2831",
"i#	c #141C29",
"j#	c #191A1E",
"k#	c #272727",
"l#	c #030207",
"m#	c #091018",
"n#	c #151C2C",
"o#	c #1E252F",
"p#	c #151618",
"q#	c #0F0A06",
"r#	c #1B1718",
"s#	c #2C2C36",
"t#	c #5A5B5D",
"u#	c #44484B",
"v#	c #171918",
"w#	c #1F1E1C",
"x#	c #595047",
"y#	c #684D38",
"z#	c #1E0E01",
"A#	c #010204",
"B#	c #030305",
"C#	c #07080A",
"D#	c #2E373E",
"E#	c #48494E",
"F#	c #31363C",
"G#	c #181816",
"H#	c #5C5751",
"I#	c #7D746D",
"J#	c #61412C",
"K#	c #913F17",
"L#	c #BB5225",
"M#	c #AF4C22",
"N#	c #6F3213",
"O#	c #261B19",
"P#	c #121929",
"Q#	c #101825",
"R#	c #0B0F18",
"S#	c #0B0B0D",
"T#	c #0B0704",
"U#	c #3E1E09",
"V#	c #994C20",
"W#	c #E19756",
"X#	c #F6C374",
"Y#	c #F5C273",
"Z#	c #DEAC65",
"`#	c #82592D",
" $	c #1D0C02",
".$	c #1A0902",
"+$	c #5C1A00",
"@$	c #441704",
"#$	c #161817",
"$$	c #5B5249",
"%$	c #7E5B3F",
"&$	c #9D4C21",
"*$	c #E59C58",
"=$	c #F8C778",
"-$	c #F4BC6F",
";$	c #CD7F41",
">$	c #8C3A12",
",$	c #912F00",
"'$	c #BB3500",
")$	c #A22F00",
"!$	c #471806",
"~$	c #161614",
"{$	c #383530",
"]$	c #63402C",
"^$	c #E09051",
"/$	c #E19250",
"($	c #D28B4B",
"_$	c #9F632D",
":$	c #9D3A01",
"<$	c #E16E04",
"[$	c #F08207",
"}$	c #B94F03",
"|$	c #481905",
"1$	c #211F22",
"2$	c #393939",
"3$	c #615859",
"4$	c #623E28",
"5$	c #8C3D14",
"6$	c #8C3D16",
"7$	c #8C3C17",
"8$	c #8B3911",
"9$	c #E37003",
"0$	c #D77C07",
"a$	c #5F3908",
"b$	c #151515",
"c$	c #000000",
"d$	c #080300",
"e$	c #321300",
"f$	c #512000",
"g$	c #5D2200",
"h$	c #9C3900",
"i$	c #E46F05",
"j$	c #F08406",
"k$	c #BA5004",
"l$	c #4A1A06",
"m$	c #18181A",
"n$	c #1F120C",
"o$	c #752200",
"p$	c #C64300",
"q$	c #E36E05",
"r$	c #F98F08",
"s$	c #E88007",
"t$	c #994102",
"u$	c #320D05",
"v$	c #181818",
"w$	c #1F100B",
"x$	c #772300",
"y$	c #C13801",
"z$	c #C84403",
"A$	c #DC6604",
"B$	c #BC5103",
"C$	c #471400",
"D$	c #050505",
"E$	c #161616",
"F$	c #20130D",
"G$	c #C74302",
"H$	c #FA9008",
"I$	c #F28608",
"J$	c #BB5103",
"K$	c #491905",
"L$	c #1D1F1E",
"M$	c #22150F",
"N$	c #7A2B02",
"O$	c #F89108",
"P$	c #F89009",
"Q$	c #E67F06",
"R$	c #983F03",
"S$	c #330E06",
"T$	c #241711",
"U$	c #742B02",
"V$	c #DC6B05",
"W$	c #F68E07",
"X$	c #F08707",
"Y$	c #BD5202",
"Z$	c #481500",
"`$	c #070908",
" %	c #1D1D1B",
".%	c #1B1D1C",
"+%	c #792A01",
"@%	c #DF6905",
"#%	c #EE8007",
"$%	c #4E1B06",
"%%	c #1A100E",
"&%	c #4E1100",
"*%	c #982800",
"=%	c #B03200",
"-%	c #992C01",
";%	c #461705",
">%	c #100E0F",
",%	c #080403",
"'%	c #100903",
")%	c #140D07",
"!%	c #0C0904",
"~%	c #040203",
"{%	c #060405",
"]%	c #1F1D1E",
"^%	c #472712",
"/%	c #914C23",
"(%	c #BF8148",
"_%	c #7C5931",
":%	c #241A18",
"<%	c #080D13",
"[%	c #070705",
"}%	c #11100E",
"|%	c #1F1E1A",
"1%	c #110F10",
"2%	c #1B2026",
"3%	c #1E2633",
"4%	c #423D3A",
"5%	c #7C6545",
"6%	c #52432C",
"7%	c #0C0D0F",
"8%	c #0E1623",
"9%	c #251E26",
"0%	c #623427",
"a%	c #452822",
"b%	c #212322",
"c%	c #0B0C0E",
"d%	c #020307",
"e%	c #020305",
"f%	c #030408",
"g%	c #090D16",
"h%	c #0E121D",
"i%	c #0F0E16",
"j%	c #1F2024",
"k%	c #131720",
"l%	c #0F1628",
"m%	c #101727",
"n%	c #0F1626",
"o%	c #060912",
"p%	c #010100",
"q%	c #030303",
"r%	c #0A0A0A",
"s%	c #0D0D0F",
"t%	c #0C0F18",
"u%	c #111828",
"v%	c #131B28",
"w%	c #08090B",
"x%	c #121212",
"y%	c #2A2A2C",
"z%	c #2A2A28",
"A%	c #2D363D",
"B%	c #111016",
"C%	c #231B18",
"D%	c #202833",
"E%	c #454543",
"F%	c #5C483F",
"G%	c #6C3C28",
"H%	c #3D1F14",
"I%	c #1A1819",
"J%	c #292A2F",
"K%	c #806547",
"L%	c #9C623C",
"M%	c #3E251E",
"N%	c #0E1116",
"O%	c #0C0E0D",
"P%	c #040809",
"Q%	c #0A0F15",
"R%	c #0C121E",
"S%	c #0E121E",
"T%	c #0C101B",
"U%	c #060606",
"V%	c #080808",
"W%	c #090909",
"  . + @ @ # $ % & & * & = & - ; ; & & & % & & > , , ' > ) ! , ~ , , ~ & { . { { & & & & & & % % ; ; ; ; ; ; & & & * ; ; + ; & , ",
"* ] ^ / / ( _ * + ; ; & ; ; ; ; ] ; & & & & & , ~ & & , , , > & * & , : _ _ < + [ ] } + ] [ + ; ] ] ] ] ] + ; & & } ( ( ( ( ( , ",
"_ | 1 ^ ( ] ] ] ( ( ( ( ] + ] ] ( ( ] ; ; ; & : ; ] { : : % 2 & _ % 2 * 3 ; ; ; ] ( ( 4 4 ( ( ( ( ] ] ] ] ] ; ] 5 1 ( ( ( 1 1 , ",
"; ( ( 1 ( 6 ( 1 ^ 1 1 7 ( ( ] ] ( ( } 8 ( 9 ; ] 0 ] ; 3 ; & & ; # & 2 8 8 ] ] 8 ( ( | | @ 1 ( } ( ( ( ( ( 1 1 1 1 5 1 ( 9 1 ^ , ",
"a ( ( ( 1 1 7 1 1 1 5 7 ( ( ( ] ] ] ] ( @ ] ] ( ( ; # ; ; & b ; c d e a ] f g h ( ( ] ] ] i ] ( ( ( ( ] ] ( ^ 1 ( ( 1 1 1 ( ] , ",
"# j ( ( 1 1 1 1 1 1 ( 9 ( ] + ; ] ; ; ] + ] ] ] a ; } ; & & ; f k l m n c o p q ; 4 ] ] ] ] ( 9 } + ; & ; | ( ] ] ( 1 ( ^ ( ( , ",
"; ( ( ] 1 1 1 1 1 1 1 9 ] ; ; } | ] ; ; ; ] ; ] ; ; ; ; r s t u v w x y z A B C & ] D ; 8 ; ; ] ; & & ; ] ] @ ] ; ] 1 ( 1 1 ( , ",
"* | ( | 1 1 1 1 ^ 1 ( ] E ; ; ; ; ; ; ; ; - ; ; _ % . * c F G H I J K L M N O P Q R S T # ; 3 ; & & ; ; ; ; ; ; ; ] ( 1 1 1 ( > ",
"; ( 1 1 1 1 1 1 1 9 ( ] + + ; ; ; ; ; ; ; ; ; ; & & U & V W X Y Z `  ...+.@.#.$.%.&.*.=.; ] # - ; ; ; - & & ; } ] ] ( 1 1 1 1 , ",
"] ( 1 1 1 ( ( 1 1 1 1 ] ; ; ; ; ; ; | ( ; ; + ; ; + & -.c ;.>.,.'.).!.~.{.].^./.(._.; - & & & ; ; ; ; ; * & & + ] ( ( 1 1 1 5 , ",
"] ^ 1 1 ] ] ( 5 1 ( ( ] ; ; + ; ] ; ( ( ; ; ; ; ; # * :.<.[.}.|.1.2.3.4.5.^.6.7.8.9.0.% { & ; ; ; ; ; ; & & ; ] ] ] @ @ 1 1 1 , ",
"] ^ ( | ; ; ] ( 1 ( ] + ; & & + ; ; ; ; & & ; ; 2 a.b.c.d.e.f.g.h.i.j.k.l.m.n.o.p.q.r.s.& & & ; & & ; + & ; ] ( ] ; ; @ ^ 1 9 , ",
"] 1 ( ( ; ; ] ( ( ; + ; ; ; ; ; ; ; ; ; & ; ; ; & t.u.v.w.x.y.z.A.B.C.D.E.F.G.H.I.J.K.L.. . & & & & & ; ; ; ; ] ] ; ; ; | 1 1 > ",
"( ^ ( ; ; ] ] ( ] ; - + + ] ; & & & & & ; ; ; & & M.N.O.P.Q.R.S.T.U.V.W.X.Y.Z.`. +.+++% % & @+* & & & & ; + + ; ; ; ; ; ^ 1 1 , ",
"] ( ] ; ] ] ( ] ; ; + ; ] ; & & : & ; ] ] ; & & % & #+$+%+&+*+=+-+;+>+,+'+)+!+~+{+]+^+& ; & - ; ; * & & & ; ] ; + ; ; ] 1 5 1 , ",
"; ] ( ; ; ; ] ; + ; ; ] ] } & & ; ; ; ; ; & & & /+. (+_+:+<+[+}+|+1+2+3+4+5+6+7+8+9+; & % & [ ; + ; ; & ; ; ] ] ] ; ] ( 1 1 ( , ",
"; ] ] ; ; ; @ ; ; ; - @ ] ; & & ; ; ; ; ; ; | & & ; 0+a+b+c+d+e+f+g+h+i+j+k+l+m+n+o+; < ; ; p+3 ; ; ; ; ; ] ] ( ( ] ( 1 1 1 ^ , ",
"& ; ] ; ; ] ( ( ] ] } ] ] ; & & - ; ; ; ; & & & ; q+r+s+t+u+v+w+x+y+z+A+B+C+D+E+F+& ; ; ; ; ; ; ; ( ] ( ] ( ( ] ( ( ( 1 1 1 | , ",
"& ; ; ] ; * ( 9 ] ] ] ] ; ; ; ; ; ; ; ; ; & & & G+H+I+J+K+L+M+N+O+P+Q+R+S+T+U+V+W+< ; ; ; < ; 4 } ] ( 9 ] ; ] ] ( ( ( 1 1 1 ]   ",
": & + ( + & ] ( ( ( ] + ; ; ; ; ; & & ; ; & & & X+Y+Z+`+e  @.@+@@@#@$@%@&@*@=@-@;@; ; ; ] ; ; ] ( | ( ( ] ; ; ] ( ( 9 ( 5 1 ] , ",
"& & ; ( ] & ; ] ] ( ] ; ; ; ; ; ; - & & * & & & >@,@'@)@M.!@~@{@]@^@/@(@_@:@<@[@c < ; a ] ] ] ( ( 9 ( ( ] ] + ] ( 9 ( ] 9 1 ] , ",
", & ; ( ] ; ; ] ] ( ] ; ; & ; + ; ; - & & & ; ] }@/+|@& ; (+1@2@3@4@5@6@7@8@9@0@< ; ; 3 ] ] ] ( 1 1 1 ( ( ] ; & ] ( ( ] ] 1 ] , ",
"& : & ( ^ ] + ] ( ( ] ; ; ; ; ; ; ; ; : & & } - a@|@b@_ c@d@e@f@g@h@i@j@k@l@V ; ; ; ; + ] ] ] 1 1 ( ( ( ] ; + ; ; ] ( ( ] 5 ( , ",
": & & @ ( 9 ] ; ] ] ; ; ; ; ; ] ] ; ; & & : ; * }@m@b@; X+n@x+o@p@q@r@s@t@u@v@] p+; ; + ; ] w@( ^ ( ( } ] @ ] ] ; ; + ; ; 1 ( , ",
"& & & ; ( 1 ] ] ] ] ; ; ; - ] ( ] ; - & & ; & & x@|@s.} y@n@x+z@A@B@q@C@D@E@F@] ; + + + ] ] @ ( 1 ( ] ] ( ( ( ( ( ; ; & & ( ] , ",
"& & & ; ; 1 ( ] ] ] ; ; + ; ] ] ] ] - & ; & & & - (+x@] y@G@x+z@H@I@J@K@L@M@N@O@* ; ; ] ( ( ( ] ( @ ] ] ( | ( ( ( ] ; ; ; ] ; , ",
": & & @ + ( ( ] ] | ] | ( ( 1 ( ( ( - ; ; + & ; ; ; _ ; (+P@Q@z@R@S@T@U@V@W@X@Y@- ] ] | ( ( ( ] ] ] @ ] ( ( ( ( ] ] ] ] } ( } , ",
"& & ; | ; ] ] ] ( ( ( ] ] ; ] } ] - ; ; ] ] ; ; ; ; ; ; (+Z@`@ #.#+#@#e+##$#%#&#] ; ] ( | ( ( @ ; @ ] ; ( ^ ( | ] ] ; ( ( ( ] , ",
"& + ] ( ] ; ; ( 1 ^ ] & & & & & & & & ; & ] ( ] < ; ; _ (+Z@*#=#-#;#@#e+>#,#'#)#] ; ( ( ( ( ( ; ] ] ( * ] 1 ( ( ( ] ] ] 1 ( ( , ",
". ] ( !#4 ; } a ] ] ] * & & & & ; & & ; * * ] 1 ] # % ; ~#{#]#^#/#(#_#:#<#[#}#|#( ( ] ( ( 5 ( ] ] ] ( ; ] ( ] ( | ] ] @ 9 1 ( , ",
"& - 9 1#; & & - ; ; ; ; & * ; ; ] ; + ; * & & ; ] ] & ; 2#3#4#5#6#7#8#9#0#a#}#Y@( 1 ( ] 1 1 @ ] ] ] ( ; ] ; ] ] ( ( ] ] ( 1 1 , ",
"& ; ] ( } ; + ; ; ; ; ; ; - ; ; ; ; ; + & & & & _ ( ; ] } b#4#z@c#d#e#f#g#h#i#j#] ( ( ] ( | ( 1 ( ( ] - ; ; ] ( ( ( ; ] 9 1 1 > ",
"& * ] | | ; + ; ] ] ; ; ; ] ; ; ( } ; & & & & & & . ] k#b@l#m#n#o#p#q#r#s#t#u#Y@; ( ( ; - ] ( ( ( ( ] ; ; ; ] ( 9 ( @ ] 5 1 1 , ",
", & : ; ] ; * - ] ] ; ; ] ( ; ( ( | @ ; * & ; & ; ; v#w#x#y#z#A#B#C#I@D#L@E#F#Y@; ; ; + ; ( ( ( ^ @ ; + ; + ] ( ( ] @ ( 1 1 ] > ",
"> & * & * & & + ] ; ] ; ] | ( ( ( ( ] | & & ] ; ; - G#H#I#J#K#L#M#N#O#P#Q#R#4#j#; ] ] ] + ] ( ( | ; ; + ] ] 9 ( ( ] @ ( 1 ^ ; > ",
"> > & & & : & - ; ; ] ] ] 9 ( 1 ( ( ( ] & & ; ; ] - S#T#U#V#W#X#Y#Z#`# $.$+$@$#$( ( ( ] ; ] | ( ; ; ; @ ( ( ( 9 ( ( ( 5 ( 1 ; , ",
", : : ; ; ; & ; ; ] ] ] + ( ( 1 | ( ( ; ; ; ; + # x@G#$$%$&$*$=$-$;$>$,$'$)$!$~$] ] ( ] ] ] ] ] ; + ] 9 1 9 ( ( 1 1 ^ 5 ] ( & , ",
": & ; + ] ; ; - ; ; ] ; ; ] @ ] @ 1 ( ] & @ ] ; ; x@b@{$]$&$^$/$($_$:$<$[$}$|$~$- ; ; ] ] ] ; - * ; } ( ( ( ] @ 1 1 ( 1 ( 9 ; , ",
": & - ; @ ] ; ; & ; + ; ( ( ( ] ( 1 1 ] & ; ] - 8 1$b@2$3$4$5$6$7$8$:$9$0$a$b$} ] ; & & & @ ] & & ; @ ] ] ] @ ] 1 1 ( ( 1 1 ; , ",
"& & : & ; ; ; ; ; & ; ; ( ( | 9 ] } } ; : & ; ( D ; (+, c$d$e$f$g$h$i$j$k$l$m$v@] - ; ; ( ] ; ; ; ] ( @ ; ] ] ] 1 1 ] 9 1 5 ] , ",
"& & & ; ; @ ] ] ; ; ; ; ] ( ( ( } ; ; - & & ; ; ; ] ] ( ; G#n$o$p$q$r$s$t$u$v$_ ; + @ ( ( ( ] ] ; @ 1 ^ ; ] ] ; ; ] ] ^ 1 1 ] , ",
"* & ; ; - ] ] ; ; ; ] ] ; ( ; ; + ] ; ; ; ; ; ; ; ; ] ] * m$w$x$y$z$A$B$C$D$E$& * ; ] ; ; ] ( ; & ] ( ] @ ( ( ; & @ ] ( 1 1 ] , ",
", & - ; ; ; & & ; ( 1 1 ( ( ; } ] ] ; ] ] ; ] ] } ; ; ; x@F$o$G$i$H$I$J$K$v$; p+; ; ; ; ] | ( ] ; ] ( ] 9 ( 9 ( ( ( ] ] ( 1 ^   ",
", & & ; * & ; ; ] ] ] ] ; ; ; ( | ; & ; ; ; - ; ; ; ; 3 L$M$N$q$O$P$Q$R$S$2 ; _ ] + ; ( ^ 1 ^ ( + ] ( ( ( 1 1 1 1 5 ] ; ; 5 |   ",
", & & & & & ; ; ] ] ] ] ] ; + ] ] ; - ; ; ] ] ; & & - # (+T$U$V$W$X$Y$Z$`$ %; ; ] ] ( 9 ( 1 1 ( ; ] | ( 1 1 ^ 1 1 1 ] & ] ( ] > ",
"& ; & & ; ; ] ; + ] ( 1 1 ( @ ] ; ] ] + ] ] @ * ; & .%% ; ; T$+%@%#%B$$%o+1 ; & ; ] ( ( ( 1 | ] ; ; ( 1 ^ 1 1 ( 1 ( & & | ( ; , ",
"& & & & ] ] ( ; & | ( ( 1 ( ( ] ; ] ; ] ( ] ] * # ; & & ; ; %%&%*%=%-%;%}@9 - & ; ] ( ( ( ( ] ] ] ; ( ( 1 1 1 1 ] + ; } ^ 1 ( , ",
"; & & * ( ( ( ; * ( ( ] ( 1 ( ; ; ; ; } ] ] ; ; 3 3 ; ] & * >%,%'%)%!%~%{%E$]%; ] ( | ( ( ] ; ] @ ] ( 1 5 5 1 ] ; ; ] 1 1 1 ^   ",
"& & & & ] ( ( ; & ; ] ( ( ( ] ; ; ; ; - ] ] ; * ; ] ] ; # * ^+^%/%(%_%:%<%[%}%|%9 1 ( ( ] & & ] ] ] ( 1 1 1 ( + & ; ; 1 1 1 1 , ",
"& ; & & # ( ( ] * ; ; ; ; ] ] & & ; ; ; ] ; + ; - ; ; ; ( )@1%2%e+e+q@3%o@4%5%6%: ( ( ] * & & ; ( @ ; ( ( ] ; ; ; ; ] 1 1 1 ( , ",
"& ; & & ; ] ( + & ; * & ; ; ; & & ; & * + ; % : & + & & D v$7%2@8%8%8%8%9%0%a%I+v$@ k#& & & ; ; ] ] ] ] + ; ; ; ] ( ( 1 ^ 1 ] , ",
"& ; & & & * 1 ; & & & & ; ; ; & ] 9 ] ; & ; + ; b%; ; 3 c@v$c%d%d%d%e%f%g%8%h%i%* ( + & ; * ; ; ] ] ] ; ; ; ; ] ( 1 1 1 1 1 ( , ",
"& ; & & & & ( ; & & & ; ] ( ] ; + ; ; ; ; ; ] 9 ; ; a ; 1$j%k%l%m%n%3@o%p%q%r%& ( ] ; ] ] ; ] ] ( ( ] ; ; ] ( ( ( 1 ^ 1 1 1 ] , ",
"& & , * ; & + ; & & & ; ( | ( & & & * ; ; + # ] ; ; 4 ; & m$s%t%u%x+v%;#w%x%x@G+] ; @ ( 1 1 ] ( ( ( ; ; ] 1 1 ( ( 1 5 1 1 | - , ",
"& & & ; ] & ; & & * ; ] 2#9 ] & & ; & & ; ] ( ] ] y%z%] ; v$s%R#x+=#D#A%o#B%%%C%G+; } ( ; ( ; ] ] ] ; + ( 1 1 ( ( 1 1 1 ( 9 ; , ",
"& & & ] ( - & ; ] | ] ; @ ( ; ; ; & ; * ; ] 1 ( } ( ( 8 ] x@Z@R#m%x+D%B@E%F%G%H%E$; ; } ; ; ; ; - ] ; ] 1 1 9 ] ( ( 9 ( ( 1 ] , ",
"+ - ; } ( ; ; ( ( ( ] @ ( ( _ ; ; ; - ; ; ] ( ] a ] ; @ ; I%7%2@n%m%m%J%K%L%M%N%v$- ; ; ; ; ; ; ; ; ] ( 1 ( @ ] ] ( ( 1 1 1 ] , ",
"] } * ; ] + ] ( ( ( ; b%} @ ; ^ ( ] ; ; ; } ] ] ] - & & { }@O%P%Q%R%S%R%R%T%N%v$; ; + ] ] ] ] ] ; } ( ] } ; ; ] ( ( ( 1 1 ( ] , ",
"( ] & ; ( ( ] ( 1 ] _ ; ; ; ; 1 ^ ( ; ; ; ; ; ] ( ] # & & - & }@, U%U%V%W%, x@] ; ; } ( ] ] ] @ ( ( ( ] + ; ] ( 1 1 1 5 1 1 1 & ",
"] ] + ; ] ( ( ( ^ | ] ] ( ( ( ] ] ] ; & ; ] ] ] ( ( @ ; ; + < ] + ; _ a 1 1 9 ( ( @ 9 ( 9 9 1 ( 9 1 1 ( ( ( ( 1 1 1 1 1 1 1 1 & ",
"* ] ] ( ( ( 1 1 1 9 ( ( 1 1 ( ] ] ] ; ] ( ] 9 9 ( ] ] < ] ] ] ( ( ( ] ( 1 1 1 1 1 1 1 1 ( ( ( 1 ^ 1 1 1 1 1 1 ^ 1 9 1 9 ( 1 1 , ",
"& + ( 1 1 1 1 1 1 9 1 1 / 5 ^ ( ] ] ] ] ; ] ] ] D ; & * ; # ; ] | ( z%( 1 7 1 ( ( ( ( ( ( ^ 1 1 1 1 1 ^ 1 1 1 1 ] ( 1 ( ( 1 ( , ",
"& ; ] ( ( ^ ( ] ] ] ] ; ; ; ; ; ; + ; ; & ; ; & & & & & & & & & # ] 8 ( 1 y%] ] ] + ; ; ; ; ] ] ] ( ( 1 1 ( ] ] @ | ( ] ( ( - , ",
"  , , , , , , , , , ) , , , , , , , , , , , ,   ! , '@,   , , , >%, , & , , , , , , , , , , , > , > ,   , , > , , , , , , , , , "};
