/* XPM */
static char * frames5_xpm[] = {
"64 64 624 2",
"  	c #0E0E0E",
". 	c #1B1B1B",
"+ 	c #212121",
"@ 	c #242424",
"# 	c #222222",
"$ 	c #1A1A1A",
"% 	c #1C1C1C",
"& 	c #0F0F0F",
"* 	c #0F0D0E",
"= 	c #0E0E0C",
"- 	c #1A1C1B",
"; 	c #202020",
"> 	c #252525",
", 	c #313131",
"' 	c #2B2B2B",
") 	c #0F0E0C",
"! 	c #0D0D0D",
"~ 	c #1C1A1B",
"{ 	c #1B1B1D",
"] 	c #0C0D0F",
"^ 	c #262626",
"/ 	c #2A2A2A",
"( 	c #323232",
"_ 	c #292929",
": 	c #222021",
"< 	c #191A1C",
"[ 	c #202221",
"} 	c #282828",
"| 	c #242625",
"1 	c #262523",
"2 	c #232323",
"3 	c #222220",
"4 	c #21211F",
"5 	c #252523",
"6 	c #292B2A",
"7 	c #26221F",
"8 	c #321C0E",
"9 	c #2D1C12",
"0 	c #311B10",
"a 	c #2B1D14",
"b 	c #2C2C2C",
"c 	c #212123",
"d 	c #25201D",
"e 	c #3D220F",
"f 	c #452006",
"g 	c #312016",
"h 	c #23221E",
"i 	c #493514",
"j 	c #8F7812",
"k 	c #786115",
"l 	c #32241B",
"m 	c #211D1A",
"n 	c #493011",
"o 	c #937A13",
"p 	c #816511",
"q 	c #522103",
"r 	c #8E4309",
"s 	c #C79415",
"t 	c #897212",
"u 	c #342319",
"v 	c #26211D",
"w 	c #342113",
"x 	c #2F2118",
"y 	c #331D0F",
"z 	c #461E04",
"A 	c #491F06",
"B 	c #471D04",
"C 	c #5E3507",
"D 	c #B29515",
"E 	c #E1A813",
"F 	c #C05102",
"G 	c #BF4D07",
"H 	c #CF9615",
"I 	c #897111",
"J 	c #372010",
"K 	c #3B2110",
"L 	c #491F07",
"M 	c #301F17",
"N 	c #212320",
"O 	c #231F1C",
"P 	c #281A0D",
"Q 	c #865206",
"R 	c #DBA414",
"S 	c #C9800F",
"T 	c #DA7C0A",
"U 	c #F7C117",
"V 	c #EDA211",
"W 	c #D96003",
"X 	c #E07F0C",
"Y 	c #D7AB17",
"Z 	c #937C14",
"` 	c #947B14",
" .	c #7D6211",
"..	c #322117",
"+.	c #303030",
"@.	c #1F1E1C",
"#.	c #30210C",
"$.	c #9F6B08",
"%.	c #F0B617",
"&.	c #DD8A10",
"*.	c #DF7209",
"=.	c #E27A09",
"-.	c #DB9011",
";.	c #DD9413",
">.	c #E3A715",
",.	c #E6A513",
"'.	c #C25D05",
").	c #763308",
"!.	c #1F1B18",
"~.	c #341D0D",
"{.	c #512000",
"].	c #953A01",
"^.	c #E47F09",
"/.	c #E3A617",
"(.	c #EED822",
"_.	c #DC8C11",
":.	c #DF6B06",
"<.	c #DF790A",
"[.	c #D98F12",
"}.	c #B96F0E",
"|.	c #682805",
"1.	c #1C1D0F",
"2.	c #848215",
"3.	c #E6D820",
"4.	c #DAA112",
"5.	c #7D4E1A",
"6.	c #3F3724",
"7.	c #A46717",
"8.	c #F49E0D",
"9.	c #F9C71A",
"0.	c #EFA913",
"a.	c #DB6E07",
"b.	c #E3AA15",
"c.	c #EED521",
"d.	c #C3790E",
"e.	c #772902",
"f.	c #4C1F02",
"g.	c #422007",
"h.	c #2D1F16",
"i.	c #1A1A18",
"j.	c #29230B",
"k.	c #8B5C0A",
"l.	c #7F571C",
"m.	c #2B2E33",
"n.	c #2C3339",
"o.	c #3F402E",
"p.	c #A99522",
"q.	c #F8B914",
"r.	c #F79309",
"s.	c #EF8307",
"t.	c #DD6C06",
"u.	c #C86A08",
"v.	c #834D05",
"w.	c #9E5705",
"x.	c #CF7507",
"y.	c #7D4206",
"z.	c #302217",
"A.	c #191B1A",
"B.	c #3C2A1E",
"C.	c #625F58",
"D.	c #4E4F53",
"E.	c #131A2A",
"F.	c #293028",
"G.	c #9E9F28",
"H.	c #F6E823",
"I.	c #F1AA12",
"J.	c #D95D05",
"K.	c #CA4701",
"L.	c #E17908",
"M.	c #CBA514",
"N.	c #695C0D",
"O.	c #411F06",
"P.	c #3A2313",
"Q.	c #22211F",
"R.	c #27282D",
"S.	c #71716F",
"T.	c #C2BFB8",
"U.	c #8A8B8F",
"V.	c #434039",
"W.	c #9E701A",
"X.	c #F1AC13",
"Y.	c #DB6304",
"Z.	c #C9610A",
"`.	c #9B6622",
" +	c #B28520",
".+	c #CDA915",
"++	c #555411",
"@+	c #181715",
"#+	c #202123",
"$+	c #21242D",
"%+	c #747371",
"&+	c #D3D0C7",
"*+	c #C2BDB9",
"=+	c #75746F",
"-+	c #5B5F48",
";+	c #AEA42B",
">+	c #E0A918",
",+	c #744B1D",
"'+	c #302F34",
")+	c #373A3F",
"!+	c #343635",
"~+	c #1E1F17",
"{+	c #090A04",
"]+	c #121212",
"^+	c #1B1B19",
"/+	c #1A1B1D",
"(+	c #1D212A",
"_+	c #282E3A",
":+	c #A09A8C",
"<+	c #787860",
"[+	c #949631",
"}+	c #6F7225",
"|+	c #181E2A",
"1+	c #242C37",
"2+	c #2C353E",
"3+	c #25242A",
"4+	c #2E170F",
"5+	c #1C0D06",
"6+	c #0E101C",
"7+	c #171A1F",
"8+	c #25211E",
"9+	c #462512",
"0+	c #803A18",
"a+	c #5A352C",
"b+	c #19212E",
"c+	c #3B3833",
"d+	c #926220",
"e+	c #69481D",
"f+	c #101727",
"g+	c #11182B",
"h+	c #312926",
"i+	c #885212",
"j+	c #7F4506",
"k+	c #29170D",
"l+	c #101211",
"m+	c #161616",
"n+	c #482C17",
"o+	c #9C703F",
"p+	c #82725B",
"q+	c #908C8B",
"r+	c #D49375",
"s+	c #B25126",
"t+	c #6C3928",
"u+	c #673423",
"v+	c #5F2710",
"w+	c #6A2100",
"x+	c #792A01",
"y+	c #4A2105",
"z+	c #27190E",
"A+	c #0E0F11",
"B+	c #0E1319",
"C+	c #1B1E23",
"D+	c #201C1D",
"E+	c #44240F",
"F+	c #9B4C21",
"G+	c #E19A58",
"H+	c #F2BD71",
"I+	c #DA8447",
"J+	c #C75928",
"K+	c #C65729",
"L+	c #AC4C22",
"M+	c #55250F",
"N+	c #341600",
"O+	c #492004",
"P+	c #322215",
"Q+	c #0D0E10",
"R+	c #0D111A",
"S+	c #1F1F1F",
"T+	c #201C19",
"U+	c #4C3018",
"V+	c #B58547",
"W+	c #F4BC71",
"X+	c #B35227",
"Y+	c #563027",
"Z+	c #121526",
"`+	c #08090E",
" @	c #050505",
".@	c #151515",
"+@	c #1C1C1E",
"@@	c #101010",
"#@	c #161614",
"$@	c #252527",
"%@	c #24201D",
"&@	c #482511",
"*@	c #994217",
"=@	c #B35228",
"-@	c #562F28",
";@	c #0F1827",
">@	c #0E1623",
",@	c #0B0E15",
"'@	c #333132",
")@	c #1B1D1C",
"!@	c #1E1E1E",
"~@	c #0D0F0E",
"{@	c #030406",
"]@	c #0B0F1A",
"^@	c #141B2B",
"/@	c #212832",
"(@	c #1C2431",
"_@	c #131B28",
":@	c #1F2025",
"<@	c #232122",
"[@	c #1E1F21",
"}@	c #262930",
"|@	c #5F5F5F",
"1@	c #4F5054",
"2@	c #141B2D",
"3@	c #303940",
"4@	c #2C343F",
"5@	c #222328",
"6@	c #1F2022",
"7@	c #20242D",
"8@	c #383C45",
"9@	c #333740",
"0@	c #232B36",
"a@	c #2F383F",
"b@	c #2D343E",
"c@	c #131927",
"d@	c #1C1D22",
"e@	c #171717",
"f@	c #111111",
"g@	c #202022",
"h@	c #1F262E",
"i@	c #393C45",
"j@	c #1F2630",
"k@	c #181B20",
"l@	c #1E2327",
"m@	c #1B2330",
"n@	c #111828",
"o@	c #16191E",
"p@	c #1D2124",
"q@	c #252831",
"r@	c #606060",
"s@	c #535458",
"t@	c #293239",
"u@	c #181B22",
"v@	c #1D2226",
"w@	c #2B343D",
"x@	c #191F2B",
"y@	c #0B0E13",
"z@	c #25282D",
"A@	c #5D5D5B",
"B@	c #515256",
"C@	c #14191D",
"D@	c #0F131E",
"E@	c #202932",
"F@	c #191B18",
"G@	c #252A30",
"H@	c #363B3F",
"I@	c #303135",
"J@	c #3A3934",
"K@	c #0F131C",
"L@	c #1E2832",
"M@	c #0A0F13",
"N@	c #262425",
"O@	c #1F2120",
"P@	c #3B4044",
"Q@	c #585147",
"R@	c #AB6E1D",
"S@	c #DD7F05",
"T@	c #623A07",
"U@	c #202833",
"V@	c #1C202C",
"W@	c #0C1013",
"X@	c #18181A",
"Y@	c #232426",
"Z@	c #21252E",
"`@	c #544D43",
" #	c #A7691E",
".#	c #D97B07",
"+#	c #643F0B",
"@#	c #242829",
"##	c #1D2029",
"$#	c #1C242F",
"%#	c #363034",
"&#	c #803B1A",
"*#	c #AD5305",
"=#	c #58370A",
"-#	c #1D2228",
";#	c #2B323C",
">#	c #0A0D12",
",#	c #131313",
"'#	c #282B32",
")#	c #5B5D5C",
"!#	c #4F5052",
"~#	c #121C28",
"{#	c #0A0D14",
"]#	c #09090B",
"^#	c #161920",
"/#	c #171F2A",
"(#	c #0E121E",
"_#	c #15110E",
":#	c #1F1F1D",
"<#	c #212530",
"[#	c #34393F",
"}#	c #3A3F45",
"|#	c #272E36",
"1#	c #191718",
"2#	c #170A04",
"3#	c #200D06",
"4#	c #241005",
"5#	c #4A2B17",
"6#	c #745F4C",
"7#	c #49463F",
"8#	c #252726",
"9#	c #1A191F",
"0#	c #150F11",
"a#	c #151014",
"b#	c #0E1422",
"c#	c #201B21",
"d#	c #58341C",
"e#	c #AA5828",
"f#	c #CE6B34",
"g#	c #C1622C",
"h#	c #894822",
"i#	c #684E3D",
"j#	c #6B645C",
"k#	c #383732",
"l#	c #242623",
"m#	c #2A2A28",
"n#	c #191917",
"o#	c #1E110B",
"p#	c #631E01",
"q#	c #601D00",
"r#	c #270D00",
"s#	c #522B0E",
"t#	c #B47E42",
"u#	c #F6C173",
"v#	c #F8C778",
"w#	c #F2B86E",
"x#	c #C7763E",
"y#	c #733212",
"z#	c #2C1A10",
"A#	c #11100E",
"B#	c #191919",
"C#	c #1D100A",
"D#	c #732300",
"E#	c #C74201",
"F#	c #C04501",
"G#	c #953704",
"H#	c #9D4C1F",
"I#	c #DC9754",
"J#	c #F2BD6F",
"K#	c #EDB168",
"L#	c #C8773F",
"M#	c #864622",
"N#	c #6C5948",
"O#	c #3B3A35",
"P#	c #1C130E",
"Q#	c #672704",
"R#	c #D36905",
"S#	c #F38605",
"T#	c #CB5805",
"U#	c #8D390B",
"V#	c #AC6F39",
"W#	c #D07E44",
"X#	c #CE7F44",
"Y#	c #B96C36",
"Z#	c #774022",
"`#	c #4D3E37",
" $	c #272727",
".$	c #21190E",
"+$	c #904E04",
"@$	c #EF8106",
"#$	c #D16206",
"$$	c #963804",
"%$	c #873811",
"&$	c #7F3510",
"*$	c #7D350F",
"=$	c #693415",
"-$	c #473A31",
";$	c #424242",
">$	c #181818",
",$	c #1F1D20",
"'$	c #1B100A",
")$	c #732800",
"!$	c #DE6A05",
"~$	c #F38808",
"{$	c #D26105",
"]$	c #8E3400",
"^$	c #632500",
"/$	c #481C03",
"($	c #1D0E07",
"_$	c #090708",
":$	c #0C0C0C",
"<$	c #150D0B",
"[$	c #491603",
"}$	c #B95605",
"|$	c #F28608",
"1$	c #EC7A07",
"2$	c #D05104",
"3$	c #A93001",
"4$	c #4C1906",
"5$	c #7B2C01",
"6$	c #DE6605",
"7$	c #DE6701",
"8$	c #CB4B02",
"9$	c #B23900",
"0$	c #611F05",
"a$	c #231812",
"b$	c #1F120A",
"c$	c #742902",
"d$	c #DC6B05",
"e$	c #F89108",
"f$	c #F38806",
"g$	c #DC6403",
"h$	c #AC3902",
"i$	c #4A1A06",
"j$	c #19110F",
"k$	c #B45304",
"l$	c #F28707",
"m$	c #F89106",
"n$	c #F18306",
"o$	c #BA5004",
"p$	c #4D1A07",
"q$	c #20221F",
"r$	c #190A03",
"s$	c #7E2D02",
"t$	c #E36E05",
"u$	c #F58D06",
"v$	c #E47607",
"w$	c #9B4103",
"x$	c #401C0E",
"y$	c #212322",
"z$	c #1D1D1D",
"A$	c #22130C",
"B$	c #7C2A02",
"C$	c #D75E03",
"D$	c #E16D06",
"E$	c #AC4302",
"F$	c #451708",
"G$	c #180D09",
"H$	c #521800",
"I$	c #852701",
"J$	c #7F2503",
"K$	c #5D1600",
"L$	c #230A06",
"M$	c #303231",
"N$	c #080808",
"O$	c #180F08",
"P$	c #392816",
"Q$	c #412716",
"R$	c #251106",
"S$	c #140F0B",
"T$	c #201F1B",
"U$	c #352D20",
"V$	c #262219",
"W$	c #0C0F14",
"X$	c #13181E",
"Y$	c #3C2F26",
"Z$	c #866441",
"`$	c #96643F",
" %	c #5D3420",
".%	c #281D17",
"+%	c #1A1819",
"@%	c #181713",
"#%	c #594B31",
"$%	c #6F533D",
"%%	c #342B30",
"&%	c #1E2432",
"*%	c #252D38",
"=%	c #202731",
"-%	c #12151A",
";%	c #211F20",
">%	c #0F1012",
",%	c #141118",
"'%	c #4B2E2A",
")%	c #3F2727",
"!%	c #0C121E",
"~%	c #0B0F1B",
"{%	c #090F1B",
"]%	c #090D16",
"^%	c #0A0B0F",
"/%	c #242223",
"(%	c #171516",
"_%	c #0A0E19",
":%	c #06070B",
"<%	c #040509",
"[%	c #060910",
"}%	c #060912",
"|%	c #080D11",
"1%	c #17181A",
"2%	c #090909",
"3%	c #040404",
"4%	c #020305",
"5%	c #191A1E",
"6%	c #0B0C11",
"7%	c #0F1217",
"8%	c #19202A",
"9%	c #161C2C",
"0%	c #0D1723",
"a%	c #282A29",
"b%	c #351E16",
"c%	c #2C1D18",
"d%	c #29323B",
"e%	c #262F38",
"f%	c #171F2C",
"g%	c #0A0F15",
"h%	c #1A1512",
"i%	c #472519",
"j%	c #764735",
"k%	c #735A44",
"l%	c #484943",
"m%	c #111113",
"n%	c #161117",
"o%	c #4F2F24",
"p%	c #7E593F",
"q%	c #45423D",
"r%	c #101729",
"s%	c #09101A",
"t%	c #08090D",
"u%	c #121210",
"v%	c #070E18",
"w%	c #090B17",
"x%	c #080C15",
"y%	c #090E14",
"z%	c #0D0E12",
"A%	c #131311",
"B%	c #2A2A2C",
"C%	c #292A2C",
"D%	c #100F0D",
"E%	c #0E100F",
"F%	c #31312F",
"G%	c #0D0D0F",
"  . + @ @ + # . . . $ . % . # + + . . . . . .       &     * =   *     $ - % . . . . . . . . $ $ + + + + + + . . . $ + + ; + .   ",
"$ > , , , ' + . ; + + . + + + ; > + . . . . .     . . ) !   ! ~ . { ] . + + ; + + > > + > + # + > > > > > ; + . . ^ / / / / /   ",
"+ / , ( / > > > / / / / > + > > / _ > + + + . % : > . . < . . . + $ . . + [ + + > / / > > / / / / > > > > > + > , , / / / , ,   ",
"+ / / , / ' / , , , , , / / > > ' / ^ > / } + > / > + + + . % + ; $ . > > | > 1 / / / / > , / > / / / / / , , , , , , / / , (   ",
"> / / _ , , , , , , , , / / / > > > > / 2 > > / / # 3 : + . + + 4 - . @ | > 5 6 / _ > > ^ / > / / / ' > > / , , / / , ( , / ^   ",
"+ , / / , , , , , , / / / > + + > + + > ; > > > | + > 7 8 9 + > 7 0 a > + + : 4 + > ^ > > @ / / ^ + + . + ' ' > > / , / ( / /   ",
"; / / > , , , , , , , _ > + + ^ b > + + + > + > + c + d e f g h i j k l > c # - . @ > + > + + > + . . + > > @ > + > , / , , /   ",
"$ ' / / , , , , ( , / > > + + + + + + ; + # + + ; . . m n o p q r s t u v w x + $ + > + + + + + . . + + + + + ; + > / , , , / ! ",
"+ / , , , , , , , _ / > ; + + + + + + + + ; + ; y z A B C D E F G H I J K L M + N > , _ + > ; + + + + # . . + ^ > > / , , , ,   ",
"> / , , , / / , , , , > + + + + + + / / + + + + O P Q R S T U V W X Y Z `  ...+ + + > + . . { + + + + # $ . . ; ^ / / , , ( ,   ",
"> ( , , > > / +., / / > ; + ; + @ ; / / # + + + + @.#.$.%.&.*.=.-.;.>.,.'.).g + . . ~ . . . + + + + + + . . + > > > @ > , , ,   ",
"> ( / / + + > / , / ^ ; + . . + + + + + . . + + !.~.{.].^.%.-./.(._.:.<.[.}.|.a . . % . . . . + . $ + + . + > / > + + > , , /   ",
"> , / / + + > / / + + + + # + + + + + + . + ; ; 1.2.3.4.5.6.7.8.9.0.a.b.c.d.e.f.g.h.. + . . . . . . . + + + + > > ; + # / , , ! ",
"/ , / + + ^ > / > + # ; + > + . . $ . . + + + . i.j.k.l.m.n.o.p.q.r.s.t.u.v.w.x.y.z.- A.. { + . . $ $ . + + + + + + + + , , (   ",
"> / > + ^ > / > + + ; + > + . . . . + > @ + . . !.8 B.C.D.E.F.G.H.I.J.K.L.M.N.O.P.Q.~ - + . [ + + $ . . . # ^ + ; + ; > , , , ! ",
"+ > ' + + + > + + + + > > ^ . . + + + + + . . .   ~ R.S.T.U.V.W.9.X.Y.Z.`. +.+++@++ 4 . . . + + + + + . + + > @ > + > / +., /   ",
"+ > > + 4 + @ + + # # > @ + . . + + + + + + ' . ~ #+$+%+&+*+=+-+;+>+,+'+)+!+~+{+]+# + + + + + 4 + + + + + > > / / > / , , , ,   ",
"^++ > + + > / / > > > > > + . . # + + + + . . . : 1 /+(+_+%+:+<+[+}+|+1+2+3+4+5+6+7+[ + + # + ; + / > / > / / > / / / , , , /   ",
". + + > + i./ _ > > @ > + + + + + + + + + % . . > + 8+9+0+a+b+c+d+e+f+g+h+i+j+k+l+m+4 + + + + ^ ^ > / / > + > > / / / , +., >   ",
"% . ; / + . > / / / > + + + ; + + . . + + . . . > | 8+n+o+p+q+r+s+t+u+v+w+x+y+z+A+B+C++ > + : > / ' / ' > + + > / / _ / ( +.>   ",
". . + / 5 . + > > ' > + + + + + + # . . $ . % . [ + D+E+F+G+H+I+J+K+L+M+N+O+P+% Q+R+C+> 5 @ > / / _ / / > > ; > / _ / > / , >   ",
"  ^++ / > + + > > / > + + . + S++ + # . . . + > . . . T+U+V+W+I+X+Y+Z+`+ @.@> [ +@@@#@# > 5 > / , , , / / > + . > / / > > , >   ",
". . . / ( $@; > / / > + + + + + + + + % . . ^ + { 4 + + %@&@*@=@-@f+;@>@,@% > ; % & m++ > > > '@, / / / > + ; + + > / / @ , /   ",
"% . ^+5 / _ > + > ^ + + + + S+> > + + $ . . + $ )@+ + [ > !@~@{@]@^@/@(@f+_@:@> % @@m++ + > > / , / / ^ > @ > > + + ; + + , /   ",
". . . + / , > > > > + + + # > / > + + . . + . . <@4 > ^ [@}@|@1@2@1+3@4@(@_@5@> . @@m++ > @ > / , / > > / / / / / + + . $ / > & ",
". . . + + , / > > > ; + + + > > > @ + . + . . . + [ + > 6@7@8@9@0@a@a@b@(@c@d@: e@f@e@> / / / ^ _ > > > / / / / / > + # + > +   ",
". % $ @ + ' / > > / > / / / , / / / + + + ; . + + + + + g@h@i@9@j@k@l@4@m@n@o@+ + > ^ ' / _ ' > > > @ > / / / / > > > > > / ^   ",
". . + / + > > > / / / > > + > > > # + + > ^ + + + + + p@q@r@s@0@t@u@v@w@x@y@.@> > + > / / _ / > + > > + / ( / / @ > + / / / >   ",
". + > / > + + / , ( > . . . . . . $ . + . > / > + : + #+z@A@B@0@t@C@D@E@x@y@F@/ > + / _ / / / + > > / $ > +./ / / > > > , / /   ",
". > / / > + > ^ > > > $ . . $ . # . . + . $ @ , > + % 6@G@8@H@I@J@$ K@L@x@M@. / / / > / _ , / > > > / + @ / > / / > > > / , / ! ",
". + / / + . . + + + + + . $ + + > + ; + $ . . + N@> . O@G@P@Q@R@S@T@D@U@V@W@X@+ / , / > , ( > > > > / ; > + > > / / > > / , ,   ",
". + > / > + + + + + + + + # + + + + + ; . . . . + / + Y@Z@8@`@ #.#+#l@2+x@y@.@- > / / > / / / , / / > # + + > / / / + > / , , ! ",
". . > / ' + + + > > + + + > + + / ^ + . . . . . $ A.> @###$#%#&#*#=#-#;#|+>#,#; + / / + ; @ / / / / > + + + > ' _ / @ > , , , & ",
"  . % + > + $ + > > + + > / + / / ' @ + $ . + . + + . | '#)#!#~#{#]#^#/#(#! _#^+:#+ + + + / / ' ( > + + + ; > / / > @ / , , > ! ",
"& . . % . . . + > ; > + > ' / / / / > ' . . > + + > ^+/+<#[#}#w@|#1#2#3#4#5#6#7#~ 2 > 8#+ > / / ' + + + > > _ / / > > / , ( ; ! ",
"!   . . . . . # + + > @ > / / , / / / > . . + + > > % /+9#0#a#b#c#d#e#f#g#h#i#j#k#% / l#+ > m#/ + + + > / / / _ / / / +./ , +   ",
"! . % + + + . + + > > > ; / / , ' / ' ; + + + ; 4 + . n#o#p#q#r#s#t#u#v#w#x#y#z#A#B#/ | > > > > + + > _ , _ / / , +.( +.> / .   ",
"% . + ; > + ; + + + > + + > @ > @ , / > . > > + + ; . B#C#D#E#F#G#H#I#J#K#L#M#N#O#m++ l#> > # + $ + ^ / / / > > , , / , / _ +   ",
"% . + + > > + + . + ; + / _ / > / , , > . + > # > # . B#P#Q#R#S#T#U#V#W#X#Y#Z#`# $m+. . . > > . $ + > > > ^ > > +., / / , , +   ",
". $ % . + + + + + . ; + / / ' _ > > ^ + % . + / ^ # + + B#.$+$@$#$$$%$&$*$=$-$;$@ >$+ + / > + + + > ' > + > > @ , , @ / , +.>   ",
". . . + + @ > > + + + + > / / / ^ + ; + . . + + : $@^ ' ,$'$)$!$~${$]$^$/$($_$:$>$+ > / / / > > + > , ( + > > + + > > ( , , >   ",
"$ . + + # > ^ + + + > > + / + + ; > + + + + + + + 4 > > B#<$[$}$|$1$2$3$4$>$c ^+. + > ; S+> / ; . > / > > / / + . > > / , , >   ",
"  . # + + + . . + / , , / / + ^ > > # > ^ + > > @ + + ; S+f@2#5$6$7$8$9$0$a$!@+ + + + + > / / > # | / | / 6 _ ' / / > > / , (   ",
"  $ $ # . . + + > > > > + + + / ' + $ + + + # + + + c + + + b$c$d$e$f$g$h$i$.@4 > + + / , , , / + > / / / , ( , , +.> + ; , / & ",
"  . . . . . + + > > @ > > + + > > + # + + > > + . - : # 4 ^ j$[$k$l$m$n$o$p$.@q$> > / _ _ , , / + > ' / , , ( , , , > . > / >   ",
". + . . # + > + ; > / , , / @ > + > > + > ^ @ . c . $ . + # e@r$s$t$u$v$w$x$B#. + > / / / , / > + + / , ( , , _ , / . . ' / +   ",
". . . . > > / + . / ' / +./ / ^ + > + > ' > > $ + + . . y$@ z$A$B$C$D$E$F${ 4 . ; @ / / / / > @ > + / / , , , , > + + > , , /   ",
"+ . . $ / / / + $ / / > / , / + + + + > > > + + c + + ^ - $ >$G$H$I$J$K$L$>$+ + > ' _ / / > + > @ > 6 , M$+., > + + > , , , (   ",
". . . . > ' / + . + > / / / @ + + + + # > > + . + N@l#; $ f@N$ @O$P$Q$R$S$+ 4 > / , / / > . . > > > ' , , , / + . + ; , , , ,   ",
". + . . + / / > $ + + + + > > . . + + + > + ; + : + + T$U$V$W$X$Y$Z$`$ %.%> N@| / / / > $ . . + / > + / / > + # ; + @ , , , /   ",
". + . . + > / ; . + $ . + + + . . + . . + + $ . ^+# +%@%#%$%%%m@&%*%*%=%-%{ + ;%> > > . . . + + > > ^ > ; + + + > / / , , ( >   ",
". + % . . $ , + . . . . + + + . > / @ + . + + + + ; !@>%,%'%)%!%~%{%]@]%^%.@^ > > / + . + . + + > > > + + + + > / , , , , , /   ",
". + . . . . / + $ . . + > / > + + + + + + + > / [ + /%(%y@~%_%:%<%[%[%}%|%1%> > / > + > > ; ^ > / / > + + > / / / , ( , +., >   ",
". . ! . + . ; + . . . + / / / . $ $ . + + + + > + + > S+f@2%3%4%]@f+f+f+D@5%| > > + @ _ ( +.> / / / ; + ^ ( , _ / +.+., , ' +   ",
"% . . ; > . # . . . + > ' _ > . . # . . + > / > | _ / ^ B#@@6%7%8%m@9%0%,@.@/ @ > + > / + / ; @ > > ; + / ( , / / , , , / _ +   ",
". . . > / # . + > ' > + > / + + + . + $ + > , _ ^ / a%m b%c%x@d%3@e%f%>@g%.@O@+ + + + @ + + + + + > + > , , / > / _ / / / , >   ",
"; # + ^ / + + / ' / > @ / / + # + + # + + > / > > > !@h%i%j%k%l%U@|+f+0%{#.@+ > + + + ; + ; + + + + > ' , / > > @ / / , , , >   ",
"> ^ . + > + > / / / + + > @ ; , / > + + + ^ > > @ + . m%n%o%p%q%r%r%f+s%t%>$> + + + + > > ^ > > + ^ / > > + + @ / / / , , / >   ",
"/ > . + / / > / , > + + + + + , ( / + + + + + > / > + $ u%y@v%w%x%]%y%z%A%# B%5 + + > / > ^ > > / / / > + ; > / , , , +., , , . ",
"> > ; + > / / / ( / > > / ' / > > > + . + > > > C%/ 5 + !@(%D%f@& E%l+!@, , / / / @ / / / / , / _ , , / / / / ( , , , , , , , . ",
". > > / / / , , , _ / / , +./ > > > + > / > _ _ / > > # $@> | / ' / > / M$, , F%, ( , +./ / / ( ( ( , , , , , ( , _ , _ / , , ! ",
". ; / , +.+., , , / , , , , ( / > > > > + > > > > + ~ ^++ [ : N@/ _ ' / , , F%/ / ' / / / , , , , , , ( , , , , > / , / / , /   ",
". + > / / , / > > > > + + + + + + ; + + . + + . . . . . . . . . + @ > / , / > > > + + + + ; > > > / / , , / > > @ ' ' > / / #   ",
"              !       &   !                   &   G%  !   &         ! -     *                     !   &       ! !               "};
