/* XPM */
static char *c6789614a83043c3f99b4ebd7c0dcbb2rkN9uycHYHvEPrRf[] = {
/* columns rows colors chars-per-pixel */
"64 64 6 1 ",
"  c gray13",
". c #252525",
"X c #1B1B1B",
"o c #2A2A2A",
"O c #313131",
"+ c #0E0E0E",
/* pixels */
"+X ..  XXXXXXX   XXXXXX++++++++++++XXXXXXXXXXXXX      XXXX    X+",
"X.OOOo X   X    . XXXXX++XX++++XXX+X     .. .   .....  XX.ooooo+",
" oOOo...oooo. ..oo.   XX .XXXXXX XXX    .oo..oooo..... .OOoooOO+",
" ooOoooOOOOOoo..oo..oo .o.   XX  XX.....oooo.Oo.oooooOOOOOOooOO+",
".oooOOOOOOOOooo....o...oo    X   XX....ooo...o.oooo..oOOooOOOo.+",
" OooOOOOOOooo.  .  . .... . XX . XX.     .....oo.  X oo..oOoOoo+",
" oo.OOOOOOOo.  .o.   . .    .    X ..  XX.. .  . XX .... .OoOOo+",
"XoooOOOOOOo..            XXX  XXXX..    X .     XX       .oOOOo+",
" oOOOOOOOoo.            XX X. XXX+       .Oo .      XX ...oOOOO+",
".oOOOooOOOO.      oo      XX  XX++.o      . XXX     XXX .ooOOOO+",
".OOO..oOOoo.    . oo      XXXXX++ o.    XXXXXX      XX .....OOO+",
".Ooo  .oOo.  XX     XX  XXXX++XX o..   XXXXXXXX XX  X .o.  .OOo+",
".Ooo  .oo           X   XXX++X   . XX  XX X XXXXXXX    ..   oOO+",
"oOo  ..o.    . XXXXX   XXX+X   X  XXXXXX  XXXX XXXXX        OOO+",
".o. ..o.    . XXXX .. XXXXX  XX.. XXXXX   XX X   XXXX .    .OOO+",
" .o   .    ...XX     XXX+X   X . XXXXXXX   XXX     X  ... .oOOo+",
" ..   .    .. XX      oXX XXX .  XXXXXXXX            ..oo.oOOOO+",
"X .  .oo..... XX     XXX .X   .  XXXXX   X       o.o.oo.oooOOOo+",
"X  . Xoo....         XXX.  .     XX XXXX       ...oo. ..oooOOO.+",
"XX o X.ooo.      XX  XXX.. XX       XXXX    .  .oooo.  .ooooOO.+",
"XX o.X ..o.       XXXXXX  XXX.    ..XX     ....ooooo.. .ooo.oO.+",
"+X o.  ..o.  X     XXX .XXXX   .ooo.. .     ...oOOOoo. X.oo..O.+",
"XXXoO. .oo.        XXX. X      .o... o.     ...OOooo.    .oo.Oo+",
"XXX.oo. ..     ..  XXX XX   .  .o..ooo..     ..oOoo.....     Oo+",
"XXX oO....    .o.  XX XX  ..   ......oo.    ...oOo..ooooo  XXo.+",
"XXX  Oo...    .... X XXX   . . .......  X  .ooo.o...ooooo.   . +",
"XXX. oo..o.oooOooo    X               X  ..oooo.....oooo.....o.+",
"XX o ...ooo.. ...   ..            .    .. .oooo. .. oOoo.. ooo.+",
"X .o.  oOO.XXXXXXXX X.o.       X     .oo. ooooo ..oX.Oooo...Ooo+",
"X.oo. .....XXXXX XX XX.O. X Oo Xo. X..oooo.ooOo...o .o.oo...oOo+",
"X oo XX     XX  .   XXX ..X OoX .o.X... oOo.OO....o . ..oo..oOO+",
"X .o.               XXXX o .o  .o..X   X.oo.oooOoo.   .ooo .oOO+",
"XX.oo   ..   .  o. XXXXXXX.oo X .. X     oo  .oooo.   .ooo..OOO+",
"+XX . X ..  .o ooo. XX X  X.oXXX ..X         oooO.    .oo..oOO.+",
"+XXXXXX . . .ooooo.oXX.  .XXo      X XXX ... .ooo   ..ooo..oOO +",
"++XXXXX   ...ooOooo.XX  ..XX.OOoo.   XX ooo. .oo   .oooooooOoO +",
"+XX   X  ... ooOooo       XX oOoo..oXXX ..o.....  .oOoooOOOO.oX+",
"XX  .     .  ....Oo.X..   XXX  .o .o X     ...  X .ooo..OOoOoo +",
"XX  ..  X   ooo.oOO.X . . XXX XXo..... .. XXX..XX ......OOooOO +",
"XXXX     X  oooo... XX o.   XXXX o..oo. .   o.   .o. ...OO.oOO.+",
"XXX  ...    .ooo.   XX   ..o XXX ooooo.   .ooo.. .OO ..  ..OOO.+",
"XX   ..   .. o   .        ..XXXX ooo.. XX .  .o X.o..oo X..oOO.+",
"+X    XX oOOoo ... .. ...      X oo...      .oo. .o.oooooo..oOO+",
"+XX XX  ....   oo X          . X o..oo  .  oOOOo .oooOOOOO.  Oo+",
"+XXXXX  .....  ..    .. XX   o.o.o.oOo  ..oooOOo .ooOOOOOO.X.o.+",
"X XX  .  .oOOo.. .. ...X XXX .o....OOO X .oooOo.  oOOOOoOoXXoo +",
"XXXX..o XoooOoo. . .o..X  XX .  oo .oo X .oooo... ooOOOO.  .OOo+",
" XXXooo Xoo.oOo    ...     .XX  oo  ..  .oooo. ...oOOOO.  .OOOO+",
"XXXX.oo X .ooo.     .. X ..  XX .o  .o .oOoo.XX...oOOOo X  OOOO+",
"X XX oo.X    ..XX   .       oXXX  .  o..ooo.XXX o. oo.    .OOOo+",
"X XX .o X XX   XX XX  XXX XX.XX   X .o  ...XXX  ....    .ooOOO.+",
"X XXXXO XXXX   X.o. X        XX.oo..  ...o X X  ...    .oOOOOOo+",
"X XXXXo XXX .o.       .o  .   X oOOoX ..o. .. ..oo.  .oooOOOOO.+",
"XX+X X  XXX oooXXXX    .  . XXX ..o X ... .oOO.ooo  .OOooOOOOo +",
"XXX .X XXX .oo.XX XX .o..oo. XX  XXX  o.. .o o ...  oOOooOOOoo +",
"XXX.o X .o. .o   X X .Oo.oo..  . XXX       .     . .OOo.oooooO.+",
"   .o  ooo..oo       .o... . XX  XXXX  .          .oOo...ooOOO.+",
"..X . .ooo  .. Oo.   .... XXXXXXXXXX ..    ..... .o..  .oooOOo.+",
"o.X oo.oO.     OOo     .o. XX XXXXX .oo.  .o....ooo.  .oOOOOOOOX",
"..  .oooOo..ooo... X ...oo.    .   .OOooo.ooooOooOOooooOOOOOOOOX",
"X..oooOOOoooOOo... .o.ooo.. ...ooo.oOOOOOOOOoooOOOOOOOOOOoOooOO+",
"X oOOOOOOoOOOOOo.... .... XX   .ooooOOOooooooOOOOOOOOOOO.oOooOo+",
"X .ooOo....         X  XXXXXXXXX ..oOo...     ...ooOOo...oo.oo +",
"+++++++++++++++++++++++++++++++++++X++++++++++++++++++++++++++++"
};
