/* XPM */
static char *_3d5abf38c904301afc553ff91eca52asIGJHV7Srj0UTZ4N[] = {
/* columns rows colors chars-per-pixel */
"64 64 196 2 ",
"   c #0B0B0B",
".  c #040404",
"X  c #141414",
"o  c #1D1D1C",
"O  c #181816",
"+  c #1E201F",
"@  c #3D221E",
"#  c #1F1F21",
"$  c #3D1E24",
"%  c #1E222E",
"&  c #1F2120",
"*  c #1E2130",
"=  c #232323",
"-  c #2B2326",
";  c #24232B",
":  c #29262A",
">  c #272928",
",  c #2B2B2B",
"<  c #272827",
"1  c #342524",
"2  c #3D2222",
"3  c #3D2A2C",
"4  c #372929",
"5  c #39312C",
"6  c #262A36",
"7  c #292B36",
"8  c #2A2E39",
"9  c #232732",
"0  c #382E33",
"q  c #2D333B",
"w  c #333333",
"e  c #32353C",
"r  c #393939",
"t  c #38383A",
"y  c #2E302F",
"u  c #431F1F",
"i  c #44261E",
"p  c #48271E",
"a  c #47291E",
"s  c #4B2B1C",
"d  c #512E1A",
"f  c #512E17",
"g  c #4F3217",
"h  c #4D331C",
"j  c #523416",
"k  c #563815",
"l  c #5B3B16",
"z  c #55361A",
"x  c #58361A",
"c  c #56381A",
"v  c #5A3B1A",
"b  c #603F15",
"n  c #613F1A",
"m  c #411E22",
"M  c #422421",
"N  c #452922",
"B  c #4B2C22",
"V  c #432E2E",
"C  c #4D3928",
"Z  c #533422",
"A  c #543921",
"S  c #5C3E22",
"D  c #543B2A",
"F  c #442E30",
"G  c #453835",
"H  c #5C4115",
"J  c #5C4119",
"K  c #6B480E",
"L  c #6A470F",
"P  c #654415",
"I  c #694515",
"U  c #6B4811",
"Y  c #634219",
"T  c #694518",
"R  c #674819",
"E  c #6C4A1A",
"W  c #664814",
"Q  c #724D16",
"!  c #724E1C",
"~  c #6F511B",
"^  c #74531C",
"/  c #795619",
"(  c #7C5A1C",
")  c #735117",
"_  c #5E4226",
"`  c #574738",
"'  c #674824",
"]  c #745421",
"[  c #7B5A21",
"{  c #7A5925",
"}  c #664E33",
"|  c #624F3E",
" . c #6A502B",
".. c #333741",
"X. c #353C43",
"o. c #3B3D44",
"O. c #3B3E49",
"+. c #413B42",
"@. c #3D454A",
"#. c #3C4246",
"$. c #43454B",
"%. c #454A4C",
"&. c #4A4546",
"*. c #514A4C",
"=. c #584F48",
"-. c #58524A",
";. c #464B53",
":. c #4D4D53",
">. c #434551",
",. c #554C52",
"<. c #4C5256",
"1. c #4F555B",
"2. c #515756",
"3. c #535659",
"4. c #555D5A",
"5. c #5B5E5C",
"6. c #545A55",
"7. c #635C5E",
"8. c #685955",
"9. c #685A47",
"0. c #57615C",
"q. c #5C635D",
"w. c #63665E",
"e. c #5A5D62",
"r. c #5D6463",
"t. c #5F6863",
"y. c #616761",
"u. c #646B64",
"i. c #6C6D66",
"p. c #666F6A",
"a. c #6C6E6C",
"s. c #6A6569",
"d. c #67716A",
"f. c #6C736B",
"g. c #6E7B6E",
"h. c #73746C",
"j. c #79766F",
"k. c #74766B",
"l. c #6C7371",
"z. c #6E7B72",
"x. c #747573",
"c. c #787371",
"v. c #757A74",
"b. c #7A7B74",
"n. c #757B7A",
"m. c #7C7D7A",
"M. c #797478",
"N. c #736D6C",
"B. c #815E1F",
"V. c #835F21",
"C. c #846122",
"Z. c #896625",
"A. c #8C6926",
"S. c #916C27",
"D. c #9B742F",
"F. c #9C7530",
"G. c #817D7A",
"H. c #7C827C",
"J. c #798077",
"K. c #81827C",
"L. c #7E7E80",
"P. c #857F82",
"I. c #7C8482",
"U. c #838583",
"Y. c #868984",
"T. c #898A85",
"R. c #8B8C8A",
"E. c #878788",
"W. c #918D8B",
"Q. c #8E918C",
"!. c #8B9187",
"~. c #92938D",
"^. c #95988F",
"/. c #949593",
"(. c #959A95",
"). c #9C9A96",
"_. c #9B9D9A",
"`. c #9D9796",
"'. c #A29E9C",
"]. c #9FA19C",
"[. c #A3A29F",
"{. c #A19CA3",
"}. c #9FA1A0",
"|. c #A4A5A3",
" X c #A9A6A3",
".X c #ACADAB",
"XX c #ABA9A5",
"oX c #B1ADAA",
"OX c #B1B2AE",
"+X c #BEB6AB",
"@X c #BABAB6",
"#X c #B9B7B6",
"$X c #AEADB3",
"%X c #C0B9B9",
"&X c #CFCBC9",
"*X c #E3E2E0",
/* pixels */
"  X o < < o = o o o o X o o = = = o X o X X X X X   X                 o o o X X X X X o o o o o = o = = = o o o o o = = = o O . ",
"X = w r w < < o o < = # o o o = = = o O o o X X X X X X X X X o o X X o o = = = = < = = < = o o = = < = = = o o o < < < , < <   ",
"= < , , < < < < < < < < < = < < < , = = = o o o = < o o o O o o o o X o = = = = = < < = < < , < , < < < < = = < w y , < , w w   ",
"= < < , < < < w w , t w , < < < < < = < < < = < < = = = o o o = # o o < < = < < < , , < < w < < < < < < < w , r w w , < < w w   ",
"< , < , < w w w w w w < , , , = < < < < = = < < < o = = o o = < = o o < < < < < < < < < = , < < , , < < = , w w < , w , w , <   ",
"= w < < w w w w r r < < < < = = < = = < = < < < < = = = o o o < = o o < = = = = = = < < < < < < < = = o = , < = < < w < , < ,   ",
"o , < < w w w w r w , , < = = < , < = = = < = = = o = = < = = = = # o < < < o o o < < o = o = < = o o = < < < < = < w , w , ,   ",
"o < < < w 7 y w w , < < < = = = = = = = = = # # o o o o = = o o o X < = # o < = o = = = # = = o o o o = = = < = = = < , w w ,   ",
"= < w w w , w w y < , < = = + & o = < = o & & = o o o o < = o o X X < o o = = = < < w , = < < = = = = = o o o < = < < y w w w   ",
"< < w w , , < w , w w < = < o o = = < , = o = = = = o o o = o O X X < , = = = = = = < = o o o o o = + = o o o # > < < , w r y   ",
"< w w w = = < t , < , < = = = = = = < < m.OXR.R.R.).R.). X X XoXXXR.Y.+.,.,.,.&.*.&.a.o o o o = = o < = o o = < < < < < , w ,   ",
"= w , > = = < < , < = = = o o &X%X.X[.[.T.5.e.x.K.f.w.q H.b.K.K.J.Q.b.O.|.U./.K.k.i.i.7 <.e.7.N.o _.# = o o < < < = = < w w ,   ",
"= w < < = = < , < = = = # m.+XXX X|.^.T.* X./.K.b.i...Y.K.f.h.n.x.i.w.1.U.p.p.g.K.7 X./.T.T._.R.&.&.u.$X@X< = < < = o = , w w   ",
"< w < o < < < < < = &XOXG.q q J.v.f.k.m.<.).x.q.q.e.T.y.q.4.q.u.p.e ;.T.U.0.v.x.t ../.f.i.k.k.H.k.m.9 /.o.&.v.K.@X= # = , t w   ",
"= < > o < < < W.R.`.@Xl.b.% 7 i.i.i.n.b.q u.n.b.q l.<.l.;.O.X.X.e O.u.X.f.i.2.e }./.v.N.g.i.h.u.w.O..X/.h.~.,.e w ).&X= w r ,   ",
"= < < _.|./.M./.T.Y.b.m.k.;.4.3.3.q r.(.L.R.b.@.i./.j.k.b.K.m.u.e |.R.E.v.v.m.m.O.q l.q.q.a...7 /._.G.x.q.q.t.X.Y.v.q :.,.r ,   ",
"@X|.{.'.'.x.H.b.k.h.f.p.e H.U.U.l.X.<.b.b.m.k.o...b.T.u.u.u.u.u.% ;.XXh.h.h.m.m.p.X.$.h.o.X.s.h.v.k.u.q.4.h.#.T.Y.K.<.h.~.7. X%X",
"Y.'.n.H.h.v.:.f.i.O.X.i.H.n.y.t.f.u.0.o.g.g.g.%.G 7 $.8.9.=.} X.8 D } 9.K.T.b.%.e a.f.x._.h.; /.x.3.h.6.$././.f.f.k.x.R._.j.j.w ",
"r.!.g.z.m.n.n.6 q <.$.#.e 5.r.p.u.h.h.q &.r G C j j v 2 s s s 1 1 s s p g d f *.s.=.f.f.r.z.% /.(.L.@.h.l.Y.i.q.i.l.1./.m.k.h.h.",
"y.q.b.n.f.q.:././.T.z.u.x.a.e 9 e $.=.h z s s 2 i i $ $ i i i @ M s s 2 s s s $ 2 s Z _ -.2.7 /./.v.X.2.e.<.r.x.r..X|.k.h.m.h.g.",
"6.7 O.X.@.X.o.(.k.z.x.x.u.9 7 -.C z j 2 h s s M i i M $ i i i @ 1 s s i M a s i $ i s s s D 8.).v.c.k...K.OXoX|.Y.$.a.u.i.x.i.p.",
"5./.T.R.6.l.v.v.@.o.o.@.%.8 z s s s s m s s s M i i i M s d s : ; l j z M s s s $ i s s 2 a s s s $ d h &.8.y.h.7 h.x.XX|.XX|.Q.",
"U.R.a.x.a.k.k.k.r.3.t +.w g s i M s s M s s i M a s s M z H j ; ; l d x M z x z 2 s s s $ s s s s M s s s G *.h.u.7 r./.Y.U.b.b.",
"4.x.y.q.k.h.h.v.7.D h M s s i i M p s M s z x i Q I Y i Y Y z % % P z M M E k T 2 z R z 2 s s s s M d s s s Z D %.v.(.p.q.p.g.g.",
"u.f.q.h.d.f.h.3 g d s M p s s i M s d M j l I i Q Y Y i P P z % % P Y M i R P P 2 I E x $ c c z s M s z s $ M s d Z g.4.q.q.y.d.",
"7 ..X.K.c.A j 2 s s s M M s s s a v j M P P E i I Y N 2 P k z * % P P v N P P P 2 Y ^ P $ P ! l l M l k n $ M h h $ S h 7 q r.%.",
"_.e.O.*Xz k g $ s s z M M s z i s R Y M P v E N P c M B I z z % * P z P M I I $ $ ^ I I $ U ( I P M Y n ^ $ 2 z z $ z x v.(.m._.",
"k.b.K.oX_ g z m d c M M v k R s s n k i j ] z M z z ] N I z z % % l z ^ M I I $ 2 ! I k $ A.Q I P M I P [ u l j M $ z x | I.d.g.",
"h.k.v.` j g z $ z z M $ Y C.I z j P l $ P ^ P M z v V.i I l k % % z z ! s U I $ $ ] P z $ A.Q Y z M I P E j i R M M l z | I.i.f.",
"k.k.b.G z s z $ z n B $ ! / R v s P j 2 ] z I 2 z Z.E M E k z % % z c B I U I n $ [ P z $ ] Q [ s i T P Z.$ $ b N R H v } H.i.z.",
"i.i.l.3 s h j $ k E s 2 E v J s a v $ 2 ' l v 2 E Z.I B l z h % z k z B P R I Q 2 ~ v h $ ] v { 2 2 v v v $ $ P 2 j v g ` l.i.y.",
"p.U.v.3 1 - - - , < ; % % % % % % % % % % % % ; , c ^ N l x % % z I k N ^ I k < ; % * % % % * % % % % % % ; ; < % % % 8 v./.T.#.",
".X|.m.F < < ; - P ! R : , < < ; < , < ; < < ; B Y k ^ i k c * % k I I s B T I k M < < ; ; < < : < < < < < $ S.I < ; : < m.x.Q._.",
"q.k.j.F s x s m P ] ] s Q ^ l s z ^ Q M P z 2 M Y I ^ M z z % % U T k P B ^ l I M I I x $ z z U I B U I n $ E A.k s H z J.I.t.g.",
"4.x.i.F s j d $ I ^ ^ B ^ l P s I E E $ P ^ I M Y ^ P a k k P % z U k P B A.l P M ^ I k $ k Y U k B U I $ M I S.k s J z m.v.m.i.",
"4.a.k.V s z s $ Y B.v M l P P i I ^ P M Q I I M Y ^ I s I P k % z U P P M ^ I P M I Y Y $ Y U k P B U k m M I D.I N J z m.H.f.i.",
"r.q.b.3 s j s $ Y Z.R 2 l P T i I ^ b 2 ^ I I 2 Q Q I i P P z % v U I h B E R I i E Y P $ I U v I B U Y N $ P D.P N J v :.v.3.f.",
"$...3.4 s h z $ Y ! A.2 z P k i I ( $ 2 ^ I I $ Q Y s s P z z % z K I $ Z.I ) I $ C.R I $ U k I s B I Y ( $ Y D.b i H S  X@XOX|.",
"OX@X/.V s z s i b l Z.2 l l P i I ( a M I I I 2 U U i p I z z % Y I I $ Z.I P I 2 V.^ I $ U I U B N P I ^ $ D.I R s Y z H.I.i.i.",
"h.l.~.3 z z z M R c Z.$ z c P i U ( k s I I I $ U Q N p I z z % % z U $ C.V.P I i Z.Q I $ c I U s i s Y ^ $ D.I P z Y z T.u.i.g.",
"h.p.W.F z g z 2 E z Z.2 k z P M Q ( z i P I E M I U B I I z z % % z U $ Z.[ E P i Z.~ P $ V.U U I s c Y ^ $ D.P I i R z R.w.t.g.",
"i.k.~.V g g z i z R Z.M [ z I p ^ I E B l I E $ I I B I I c z % % z I b N I E s N E ^ P $ U / c I M T / v $ D.P s Y R z R.i.0.z.",
"i.k.Q.F z d z i k ! [ M ] c I s R R ^ i b I E M P v N Y I k z % % z b I $ { I i _ I I I $ c ^ z T M I ( z $ D.P M i Y z m.r.4.X.",
"h.e s.4 j s z M P E ^ M v ^ U i z ^ B.s b I I M P ! % M I I z % * z P z $ % v i Z.I P k $ U U x T p I ( z $ F.P M 2 Y c U.Q.m.p.",
"..>.R.V s s z M P ^ ^ $ x ^ Y i z ^ V.s Y I P M Y C * ; v P I % % k P s % % h M C.I P k $ U z z U s U E z $ Z.P M $ Y z Y.l.Y.(.",
"[.OXW.3 s j z M l v [ 2 b [ U i c ! C.s Y I P M < v v 2 < I I % % k Y ; N E % < I I P U $ k z z d N ( z c $ Z.I i M b z T.f.y.g.",
"f.h.R.3 s z d M l I [ M Y [ U i Y R Z M Y I P M 5 h N 2 , k P % % z P % 2 ] % < Z.T P U $ k E k B s ) z P M ] I B 2 l z U.T.r.g.",
"g.h.R.F s j i i l P V.M l [ U i I Y Z i k I P M Z.Y v N I U z % % z P v C v v B E B.P U $ I V.U ] i Y T Y a $ I B l M z x.T.t.f.",
"w.h.U.8.s z a i I P V.M l ] U i P Y V.s Y I Q 2 Z.I b p I U c % % P z I B I I Q i P ^ U m $ V.U C.i P R l $ $ I M I l c x.R.y...",
"..k.E.F s x j i Y P V.M Y b U i I P S z Y Y ( p [ I M P I k z % % k P I B I I Q i z I ^ $ $ Z.I C.i ^ T U $ $ I M P x x ).@X_.T.",
"n...c.1 s z s i E Y ( N l Y U M I P z f z P V.p [ P Q i I c % % % z I I B I I I B I U z $ U S.I C.i R ^ U $ J R M P z z x.T.d.d.",
"u.b.P.a s d s i P z ( M z Y U N I k Z z x P V.i [ I Q N I z % % h z I a i I I k M I U z $ U v ( ' i P ^ U $ P ( ; a l z x.T.p.g.",
"q.q.c.4 4 1 a 2 v v < % ; % % % % % * ; % % ] 2 h V.Q i I z % % z z I 2 M z I h 2 % % ; % % % % % % % % % $ ] % % % % % x.U.t.g.",
"r.0.E.1 1 1 h ; % % ; ; % % % % % * * % % % ; 2 h V.Q i I z % ; z z I $ 2 v I @ 2 % % % % % % % % % % % % % ] % % % % 9 x.U.h.b.",
"y.h.`.1 1 1 j 2 ( Y I , < < ^ N I Y i Y P P B.M M ( i i J z % ; c k I $ $ H P 2 B P z $ $ U P B.I s H k A $ ] z < < z , x.U.p.z.",
"b.4..XV s z g i ( k P N I z ^ i P Y z z Y P ^ i i ( i i l z % % l I I m E J k M B Y z $ $ U k [ n i I k ^ $ $ P N n Y S x.X.e e ",
"f.3.P.1 s d d M / v P 2 I E U i P k k s I P ] $ N I I s Y z % % l P U m z k k i ( I z M $ L ] P l i I k ^ $ ~ I i P P S m.|.R.v.",
"[.(.}.3 s s a i I ( P M I ^ U i k Y k d I C.E $ ^ I I i z z % % < v U $ S i I M [ I Y U $ U ( z l i P P W $ P I M Y P ' v.Y.k.H.",
"g.j.|.3 s g s i P V.I M I ^ U i I R s v E C.I 2 ^ z j i A z % % % l I z a N I M [ c E U $ ( U I P M U P P $ P P N Y P ' x.U.i.g.",
"g.k.'.3 s g z i P ( I ' U I k i T k z z Z.I N M U z I i S z h % % z H P i M I N E E E U $ E K E U M U I P $ P P M l P ' i.U.i.g.",
"d.u.[.3 z g z i I T C.s I P k i I k s ] ! I $ M Y k I B s z c % % z Y T 2 M I P M [ U U $ Y U U U $ I C.z $ P P M P P } b.3.O.<.",
"_.|.R.y s z z i P P E M I P k i I P Z z k I j Y i Y I B I P P % % l P I $ Y I I M I ( U $ M U U U 2 C.E Y $ P P M s J } ].&X/.H.",
"g.k.|.0 d d P d T z P M I I z i P Y z z P P I a 2 I V.s P I P % % z I P $ I P P i I ^ U $ $ U U P m Z.P I $ I P M M H } x.H.y.g.",
"g.g.OX0 j j I s I z c j I I z i c z z Y P k k M j v v s z k z h % z l z $ k k z b k z k $ $ U U j $ C.k P $ k z M M Y k x.t.y.g."
};
